0
SECTION
2
HEADER
9
$INSUNITS
70
4
0
ENDSEC
0
SECTION
2
TABLES
0
TABLE
2
LAYER
70
2
0
LAYER
2
CUT
70
0
62
1
6
CONTINUOUS
0
LAYER
2
ENGRAVE
70
0
62
5
6
CONTINUOUS
0
ENDTAB
0
ENDSEC
0
SECTION
2
ENTITIES
0
POLYLINE
8
CUT
66
1
70
1
0
VERTEX
8
CUT
10
104.00000
20
0.00000
30
0
0
VERTEX
8
CUT
10
0.00000
20
0.00000
30
0
0
VERTEX
8
CUT
10
0.00000
20
38.00000
30
0
0
VERTEX
8
CUT
10
101.00000
20
38.00000
30
0
0
VERTEX
8
CUT
10
104.00000
20
35.00000
30
0
0
SEQEND
0
POLYLINE
8
ENGRAVE
66
1
70
1
0
VERTEX
8
ENGRAVE
10
94.92497
20
18.88949
30
0
0
VERTEX
8
ENGRAVE
10
94.91211
20
19.56326
30
0
0
VERTEX
8
ENGRAVE
10
94.87355
20
20.20941
30
0
0
VERTEX
8
ENGRAVE
10
94.80928
20
20.82793
30
0
0
VERTEX
8
ENGRAVE
10
94.71931
20
21.41882
30
0
0
VERTEX
8
ENGRAVE
10
94.60362
20
21.98209
30
0
0
VERTEX
8
ENGRAVE
10
94.46223
20
22.51773
30
0
0
VERTEX
8
ENGRAVE
10
94.29513
20
23.02575
30
0
0
VERTEX
8
ENGRAVE
10
94.10232
20
23.50614
30
0
0
VERTEX
8
ENGRAVE
10
93.76735
20
24.17607
30
0
0
VERTEX
8
ENGRAVE
10
93.37637
20
24.81071
30
0
0
VERTEX
8
ENGRAVE
10
92.92936
20
25.41004
30
0
0
VERTEX
8
ENGRAVE
10
92.42633
20
25.97408
30
0
0
VERTEX
8
ENGRAVE
10
91.88263
20
26.48516
30
0
0
VERTEX
8
ENGRAVE
10
91.31361
20
26.92565
30
0
0
VERTEX
8
ENGRAVE
10
90.71926
20
27.29553
30
0
0
VERTEX
8
ENGRAVE
10
90.09959
20
27.59481
30
0
0
VERTEX
8
ENGRAVE
10
89.67100
20
27.76172
30
0
0
VERTEX
8
ENGRAVE
10
89.22630
20
27.90637
30
0
0
VERTEX
8
ENGRAVE
10
88.76548
20
28.02877
30
0
0
VERTEX
8
ENGRAVE
10
88.28854
20
28.12892
30
0
0
VERTEX
8
ENGRAVE
10
87.79549
20
28.20681
30
0
0
VERTEX
8
ENGRAVE
10
87.28632
20
28.26245
30
0
0
VERTEX
8
ENGRAVE
10
86.76104
20
28.29583
30
0
0
VERTEX
8
ENGRAVE
10
86.21965
20
28.30695
30
0
0
VERTEX
8
ENGRAVE
10
85.72859
20
28.29731
30
0
0
VERTEX
8
ENGRAVE
10
85.24995
20
28.26839
30
0
0
VERTEX
8
ENGRAVE
10
84.78373
20
28.22019
30
0
0
VERTEX
8
ENGRAVE
10
84.32994
20
28.15271
30
0
0
VERTEX
8
ENGRAVE
10
83.88857
20
28.06595
30
0
0
VERTEX
8
ENGRAVE
10
83.45962
20
27.95990
30
0
0
VERTEX
8
ENGRAVE
10
83.04309
20
27.83458
30
0
0
VERTEX
8
ENGRAVE
10
82.63899
20
27.68997
30
0
0
VERTEX
8
ENGRAVE
10
82.24730
20
27.52608
30
0
0
VERTEX
8
ENGRAVE
10
81.86804
20
27.34292
30
0
0
VERTEX
8
ENGRAVE
10
81.50120
20
27.14047
30
0
0
VERTEX
8
ENGRAVE
10
81.14679
20
26.91874
30
0
0
VERTEX
8
ENGRAVE
10
80.80479
20
26.67773
30
0
0
VERTEX
8
ENGRAVE
10
80.47522
20
26.41744
30
0
0
VERTEX
8
ENGRAVE
10
80.15807
20
26.13787
30
0
0
VERTEX
8
ENGRAVE
10
79.85335
20
25.83902
30
0
0
VERTEX
8
ENGRAVE
10
79.56416
20
25.52299
30
0
0
VERTEX
8
ENGRAVE
10
79.29363
20
25.19191
30
0
0
VERTEX
8
ENGRAVE
10
79.04175
20
24.84577
30
0
0
VERTEX
8
ENGRAVE
10
78.80854
20
24.48456
30
0
0
VERTEX
8
ENGRAVE
10
78.59398
20
24.10830
30
0
0
VERTEX
8
ENGRAVE
10
78.39808
20
23.71698
30
0
0
VERTEX
8
ENGRAVE
10
78.22083
20
23.31060
30
0
0
VERTEX
8
ENGRAVE
10
78.06225
20
22.88915
30
0
0
VERTEX
8
ENGRAVE
10
77.92232
20
22.45265
30
0
0
VERTEX
8
ENGRAVE
10
77.80104
20
22.00109
30
0
0
VERTEX
8
ENGRAVE
10
77.69843
20
21.53446
30
0
0
VERTEX
8
ENGRAVE
10
77.61447
20
21.05278
30
0
0
VERTEX
8
ENGRAVE
10
77.54917
20
20.55603
30
0
0
VERTEX
8
ENGRAVE
10
77.50253
20
20.04423
30
0
0
VERTEX
8
ENGRAVE
10
77.47454
20
19.51737
30
0
0
VERTEX
8
ENGRAVE
10
77.46521
20
18.97544
30
0
0
VERTEX
8
ENGRAVE
10
77.47447
20
18.43800
30
0
0
VERTEX
8
ENGRAVE
10
77.50224
20
17.91538
30
0
0
VERTEX
8
ENGRAVE
10
77.54852
20
17.40758
30
0
0
VERTEX
8
ENGRAVE
10
77.61332
20
16.91461
30
0
0
VERTEX
8
ENGRAVE
10
77.69663
20
16.43645
30
0
0
VERTEX
8
ENGRAVE
10
77.79845
20
15.97311
30
0
0
VERTEX
8
ENGRAVE
10
77.91879
20
15.52459
30
0
0
VERTEX
8
ENGRAVE
10
78.05764
20
15.09089
30
0
0
VERTEX
8
ENGRAVE
10
78.21501
20
14.67202
30
0
0
VERTEX
8
ENGRAVE
10
78.39088
20
14.26796
30
0
0
VERTEX
8
ENGRAVE
10
78.58527
20
13.87872
30
0
0
VERTEX
8
ENGRAVE
10
78.79818
20
13.50431
30
0
0
VERTEX
8
ENGRAVE
10
79.02959
20
13.14471
30
0
0
VERTEX
8
ENGRAVE
10
79.27953
20
12.79993
30
0
0
VERTEX
8
ENGRAVE
10
79.54797
20
12.46998
30
0
0
VERTEX
8
ENGRAVE
10
79.83493
20
12.15484
30
0
0
VERTEX
8
ENGRAVE
10
80.13738
20
11.85673
30
0
0
VERTEX
8
ENGRAVE
10
80.45230
20
11.57786
30
0
0
VERTEX
8
ENGRAVE
10
80.77969
20
11.31821
30
0
0
VERTEX
8
ENGRAVE
10
81.11955
20
11.07780
30
0
0
VERTEX
8
ENGRAVE
10
81.47188
20
10.85663
30
0
0
VERTEX
8
ENGRAVE
10
81.83668
20
10.65468
30
0
0
VERTEX
8
ENGRAVE
10
82.21395
20
10.47197
30
0
0
VERTEX
8
ENGRAVE
10
82.60369
20
10.30849
30
0
0
VERTEX
8
ENGRAVE
10
83.00590
20
10.16425
30
0
0
VERTEX
8
ENGRAVE
10
83.42058
20
10.03923
30
0
0
VERTEX
8
ENGRAVE
10
83.84773
20
9.93345
30
0
0
VERTEX
8
ENGRAVE
10
84.28735
20
9.84690
30
0
0
VERTEX
8
ENGRAVE
10
84.73944
20
9.77959
30
0
0
VERTEX
8
ENGRAVE
10
85.20400
20
9.73151
30
0
0
VERTEX
8
ENGRAVE
10
85.68103
20
9.70266
30
0
0
VERTEX
8
ENGRAVE
10
86.17053
20
9.69304
30
0
0
VERTEX
8
ENGRAVE
10
86.66598
20
9.70261
30
0
0
VERTEX
8
ENGRAVE
10
87.14858
20
9.73132
30
0
0
VERTEX
8
ENGRAVE
10
87.61832
20
9.77916
30
0
0
VERTEX
8
ENGRAVE
10
88.07521
20
9.84614
30
0
0
VERTEX
8
ENGRAVE
10
88.51924
20
9.93225
30
0
0
VERTEX
8
ENGRAVE
10
88.95042
20
10.03751
30
0
0
VERTEX
8
ENGRAVE
10
89.36875
20
10.16190
30
0
0
VERTEX
8
ENGRAVE
10
89.77422
20
10.30542
30
0
0
VERTEX
8
ENGRAVE
10
90.16684
20
10.46809
30
0
0
VERTEX
8
ENGRAVE
10
90.54660
20
10.64989
30
0
0
VERTEX
8
ENGRAVE
10
90.91351
20
10.85082
30
0
0
VERTEX
8
ENGRAVE
10
91.26757
20
11.07090
30
0
0
VERTEX
8
ENGRAVE
10
91.60877
20
11.31011
30
0
0
VERTEX
8
ENGRAVE
10
91.93712
20
11.56846
30
0
0
VERTEX
8
ENGRAVE
10
92.25261
20
11.84594
30
0
0
VERTEX
8
ENGRAVE
10
92.55525
20
12.14256
30
0
0
VERTEX
8
ENGRAVE
10
92.84221
20
12.45597
30
0
0
VERTEX
8
ENGRAVE
10
93.11066
20
12.78382
30
0
0
VERTEX
8
ENGRAVE
10
93.36059
20
13.12610
30
0
0
VERTEX
8
ENGRAVE
10
93.59200
20
13.48282
30
0
0
VERTEX
8
ENGRAVE
10
93.80491
20
13.85397
30
0
0
VERTEX
8
ENGRAVE
10
93.99930
20
14.23956
30
0
0
VERTEX
8
ENGRAVE
10
94.17517
20
14.63959
30
0
0
VERTEX
8
ENGRAVE
10
94.33254
20
15.05406
30
0
0
VERTEX
8
ENGRAVE
10
94.47139
20
15.48296
30
0
0
VERTEX
8
ENGRAVE
10
94.59173
20
15.92630
30
0
0
VERTEX
8
ENGRAVE
10
94.69355
20
16.38407
30
0
0
VERTEX
8
ENGRAVE
10
94.77686
20
16.85628
30
0
0
VERTEX
8
ENGRAVE
10
94.84166
20
17.34293
30
0
0
VERTEX
8
ENGRAVE
10
94.88794
20
17.84401
30
0
0
VERTEX
8
ENGRAVE
10
94.91571
20
18.35953
30
0
0
SEQEND
0
POLYLINE
8
ENGRAVE
66
1
70
1
0
VERTEX
8
ENGRAVE
10
91.18008
20
19.01228
30
0
0
VERTEX
8
ENGRAVE
10
91.15802
20
18.27107
30
0
0
VERTEX
8
ENGRAVE
10
91.09183
20
17.57610
30
0
0
VERTEX
8
ENGRAVE
10
90.98152
20
16.92736
30
0
0
VERTEX
8
ENGRAVE
10
90.82708
20
16.32486
30
0
0
VERTEX
8
ENGRAVE
10
90.62852
20
15.76860
30
0
0
VERTEX
8
ENGRAVE
10
90.38583
20
15.25857
30
0
0
VERTEX
8
ENGRAVE
10
90.09902
20
14.79477
30
0
0
VERTEX
8
ENGRAVE
10
89.76808
20
14.37722
30
0
0
VERTEX
8
ENGRAVE
10
89.40318
20
14.00743
30
0
0
VERTEX
8
ENGRAVE
10
89.01450
20
13.68694
30
0
0
VERTEX
8
ENGRAVE
10
88.60202
20
13.41577
30
0
0
VERTEX
8
ENGRAVE
10
88.16576
20
13.19389
30
0
0
VERTEX
8
ENGRAVE
10
87.70571
20
13.02133
30
0
0
VERTEX
8
ENGRAVE
10
87.22186
20
12.89806
30
0
0
VERTEX
8
ENGRAVE
10
86.71423
20
12.82410
30
0
0
VERTEX
8
ENGRAVE
10
86.18281
20
12.79945
30
0
0
VERTEX
8
ENGRAVE
10
85.65168
20
12.82391
30
0
0
VERTEX
8
ENGRAVE
10
85.14491
20
12.89730
30
0
0
VERTEX
8
ENGRAVE
10
84.66251
20
13.01960
30
0
0
VERTEX
8
ENGRAVE
10
84.20447
20
13.19082
30
0
0
VERTEX
8
ENGRAVE
10
83.77080
20
13.41097
30
0
0
VERTEX
8
ENGRAVE
10
83.36149
20
13.68004
30
0
0
VERTEX
8
ENGRAVE
10
82.97654
20
13.99803
30
0
0
VERTEX
8
ENGRAVE
10
82.61597
20
14.36494
30
0
0
VERTEX
8
ENGRAVE
10
82.28934
20
14.78077
30
0
0
VERTEX
8
ENGRAVE
10
82.00627
20
15.24552
30
0
0
VERTEX
8
ENGRAVE
10
81.76675
20
15.75920
30
0
0
VERTEX
8
ENGRAVE
10
81.57077
20
16.32179
30
0
0
VERTEX
8
ENGRAVE
10
81.41835
20
16.93331
30
0
0
VERTEX
8
ENGRAVE
10
81.30947
20
17.59375
30
0
0
VERTEX
8
ENGRAVE
10
81.24415
20
18.30311
30
0
0
VERTEX
8
ENGRAVE
10
81.22238
20
19.06139
30
0
0
VERTEX
8
ENGRAVE
10
81.24357
20
19.81037
30
0
0
VERTEX
8
ENGRAVE
10
81.30717
20
20.51023
30
0
0
VERTEX
8
ENGRAVE
10
81.41317
20
21.16098
30
0
0
VERTEX
8
ENGRAVE
10
81.56156
20
21.76262
30
0
0
VERTEX
8
ENGRAVE
10
81.75236
20
22.31514
30
0
0
VERTEX
8
ENGRAVE
10
81.98555
20
22.81855
30
0
0
VERTEX
8
ENGRAVE
10
82.26114
20
23.27285
30
0
0
VERTEX
8
ENGRAVE
10
82.57913
20
23.67803
30
0
0
VERTEX
8
ENGRAVE
10
82.93223
20
24.03487
30
0
0
VERTEX
8
ENGRAVE
10
83.31314
20
24.34413
30
0
0
VERTEX
8
ENGRAVE
10
83.72188
20
24.60581
30
0
0
VERTEX
8
ENGRAVE
10
84.15843
20
24.81992
30
0
0
VERTEX
8
ENGRAVE
10
84.62280
20
24.98644
30
0
0
VERTEX
8
ENGRAVE
10
85.11498
20
25.10539
30
0
0
VERTEX
8
ENGRAVE
10
85.63499
20
25.17675
30
0
0
VERTEX
8
ENGRAVE
10
86.18281
20
25.20054
30
0
0
VERTEX
8
ENGRAVE
10
86.73092
20
25.17647
30
0
0
VERTEX
8
ENGRAVE
10
87.25179
20
25.10424
30
0
0
VERTEX
8
ENGRAVE
10
87.74542
20
24.98385
30
0
0
VERTEX
8
ENGRAVE
10
88.21180
20
24.81531
30
0
0
VERTEX
8
ENGRAVE
10
88.65094
20
24.59862
30
0
0
VERTEX
8
ENGRAVE
10
89.06284
20
24.33377
30
0
0
VERTEX
8
ENGRAVE
10
89.44750
20
24.02077
30
0
0
VERTEX
8
ENGRAVE
10
89.80491
20
23.65962
30
0
0
VERTEX
8
ENGRAVE
10
90.12722
20
23.24992
30
0
0
VERTEX
8
ENGRAVE
10
90.40655
20
22.79131
30
0
0
VERTEX
8
ENGRAVE
10
90.64291
20
22.28377
30
0
0
VERTEX
8
ENGRAVE
10
90.83629
20
21.72732
30
0
0
VERTEX
8
ENGRAVE
10
90.98670
20
21.12194
30
0
0
VERTEX
8
ENGRAVE
10
91.09413
20
20.46764
30
0
0
VERTEX
8
ENGRAVE
10
91.15860
20
19.76442
30
0
0
SEQEND
0
POLYLINE
8
ENGRAVE
66
1
70
1
0
VERTEX
8
ENGRAVE
10
74.59209
20
10.00000
30
0
0
VERTEX
8
ENGRAVE
10
74.59209
20
28.00000
30
0
0
VERTEX
8
ENGRAVE
10
71.05594
20
28.00000
30
0
0
VERTEX
8
ENGRAVE
10
63.68895
20
15.97953
30
0
0
VERTEX
8
ENGRAVE
10
63.68895
20
28.00000
30
0
0
VERTEX
8
ENGRAVE
10
60.31242
20
28.00000
30
0
0
VERTEX
8
ENGRAVE
10
60.31242
20
10.00000
30
0
0
VERTEX
8
ENGRAVE
10
63.95907
20
10.00000
30
0
0
VERTEX
8
ENGRAVE
10
71.21555
20
21.73806
30
0
0
VERTEX
8
ENGRAVE
10
71.21555
20
10.00000
30
0
0
SEQEND
0
POLYLINE
8
ENGRAVE
66
1
70
1
0
VERTEX
8
ENGRAVE
10
34.18418
20
10.00000
30
0
0
VERTEX
8
ENGRAVE
10
38.13779
20
10.00000
30
0
0
VERTEX
8
ENGRAVE
10
39.70941
20
14.08867
30
0
0
VERTEX
8
ENGRAVE
10
46.90451
20
14.08867
30
0
0
VERTEX
8
ENGRAVE
10
48.39018
20
10.00000
30
0
0
VERTEX
8
ENGRAVE
10
52.24557
20
10.00000
30
0
0
VERTEX
8
ENGRAVE
10
45.23466
20
28.00000
30
0
0
VERTEX
8
ENGRAVE
10
41.39154
20
28.00000
30
0
0
SEQEND
0
POLYLINE
8
ENGRAVE
66
1
70
1
0
VERTEX
8
ENGRAVE
10
40.87586
20
17.12142
30
0
0
VERTEX
8
ENGRAVE
10
43.35607
20
23.80082
30
0
0
VERTEX
8
ENGRAVE
10
45.78718
20
17.12142
30
0
0
SEQEND
0
POLYLINE
8
ENGRAVE
66
1
70
1
0
VERTEX
8
ENGRAVE
10
32.36699
20
10.00000
30
0
0
VERTEX
8
ENGRAVE
10
32.36699
20
28.00000
30
0
0
VERTEX
8
ENGRAVE
10
28.73261
20
28.00000
30
0
0
VERTEX
8
ENGRAVE
10
28.73261
20
10.00000
30
0
0
SEQEND
0
POLYLINE
8
ENGRAVE
66
1
70
1
0
VERTEX
8
ENGRAVE
10
25.25785
20
10.00000
30
0
0
VERTEX
8
ENGRAVE
10
25.25785
20
28.00000
30
0
0
VERTEX
8
ENGRAVE
10
17.60846
20
28.00000
30
0
0
VERTEX
8
ENGRAVE
10
16.91177
20
27.99242
30
0
0
VERTEX
8
ENGRAVE
10
16.26437
20
27.96969
30
0
0
VERTEX
8
ENGRAVE
10
15.66628
20
27.93180
30
0
0
VERTEX
8
ENGRAVE
10
15.11750
20
27.87875
30
0
0
VERTEX
8
ENGRAVE
10
14.61802
20
27.81055
30
0
0
VERTEX
8
ENGRAVE
10
14.16785
20
27.72719
30
0
0
VERTEX
8
ENGRAVE
10
13.76699
20
27.62867
30
0
0
VERTEX
8
ENGRAVE
10
13.41543
20
27.51500
30
0
0
VERTEX
8
ENGRAVE
10
13.09667
20
27.38196
30
0
0
VERTEX
8
ENGRAVE
10
12.79422
20
27.22531
30
0
0
VERTEX
8
ENGRAVE
10
12.50808
20
27.04507
30
0
0
VERTEX
8
ENGRAVE
10
12.23824
20
26.84123
30
0
0
VERTEX
8
ENGRAVE
10
11.98471
20
26.61380
30
0
0
VERTEX
8
ENGRAVE
10
11.74749
20
26.36276
30
0
0
VERTEX
8
ENGRAVE
10
11.52658
20
26.08813
30
0
0
VERTEX
8
ENGRAVE
10
11.32197
20
25.78990
30
0
0
VERTEX
8
ENGRAVE
10
11.13779
20
25.47431
30
0
0
VERTEX
8
ENGRAVE
10
10.97818
20
25.14759
30
0
0
VERTEX
8
ENGRAVE
10
10.84312
20
24.80975
30
0
0
VERTEX
8
ENGRAVE
10
10.73261
20
24.46078
30
0
0
VERTEX
8
ENGRAVE
10
10.64666
20
24.10068
30
0
0
VERTEX
8
ENGRAVE
10
10.58527
20
23.72945
30
0
0
VERTEX
8
ENGRAVE
10
10.54844
20
23.34709
30
0
0
VERTEX
8
ENGRAVE
10
10.53616
20
22.95361
30
0
0
VERTEX
8
ENGRAVE
10
10.55477
20
22.45816
30
0
0
VERTEX
8
ENGRAVE
10
10.61060
20
21.98478
30
0
0
VERTEX
8
ENGRAVE
10
10.70364
20
21.53345
30
0
0
VERTEX
8
ENGRAVE
10
10.83391
20
21.10419
30
0
0
VERTEX
8
ENGRAVE
10
11.00139
20
20.69699
30
0
0
VERTEX
8
ENGRAVE
10
11.20609
20
20.31186
30
0
0
VERTEX
8
ENGRAVE
10
11.44802
20
19.94878
30
0
0
VERTEX
8
ENGRAVE
10
11.72716
20
19.60777
30
0
0
VERTEX
8
ENGRAVE
10
12.04332
20
19.29305
30
0
0
VERTEX
8
ENGRAVE
10
12.39632
20
19.00882
30
0
0
VERTEX
8
ENGRAVE
10
12.78616
20
18.75510
30
0
0
VERTEX
8
ENGRAVE
10
13.21283
20
18.53189
30
0
0
VERTEX
8
ENGRAVE
10
13.67634
20
18.33918
30
0
0
VERTEX
8
ENGRAVE
10
14.17668
20
18.17697
30
0
0
VERTEX
8
ENGRAVE
10
14.71385
20
18.04526
30
0
0
VERTEX
8
ENGRAVE
10
15.28786
20
17.94406
30
0
0
VERTEX
8
ENGRAVE
10
14.72421
20
17.59183
30
0
0
VERTEX
8
ENGRAVE
10
14.21198
20
17.22271
30
0
0
VERTEX
8
ENGRAVE
10
13.75116
20
16.83671
30
0
0
VERTEX
8
ENGRAVE
10
13.34175
20
16.43383
30
0
0
VERTEX
8
ENGRAVE
10
13.14156
20
16.20822
30
0
0
VERTEX
8
ENGRAVE
10
12.92468
20
15.94270
30
0
0
VERTEX
8
ENGRAVE
10
12.69110
20
15.63728
30
0
0
VERTEX
8
ENGRAVE
10
12.44083
20
15.29195
30
0
0
VERTEX
8
ENGRAVE
10
12.17387
20
14.90672
30
0
0
VERTEX
8
ENGRAVE
10
11.89023
20
14.48158
30
0
0
VERTEX
8
ENGRAVE
10
11.58989
20
14.01654
30
0
0
VERTEX
8
ENGRAVE
10
11.27285
20
13.51159
30
0
0
VERTEX
8
ENGRAVE
10
9.07503
20
10.00000
30
0
0
VERTEX
8
ENGRAVE
10
13.42156
20
10.00000
30
0
0
VERTEX
8
ENGRAVE
10
16.04912
20
13.91678
30
0
0
VERTEX
8
ENGRAVE
10
16.38524
20
14.41741
30
0
0
VERTEX
8
ENGRAVE
10
16.69373
20
14.86950
30
0
0
VERTEX
8
ENGRAVE
10
16.97460
20
15.27305
30
0
0
VERTEX
8
ENGRAVE
10
17.22784
20
15.62807
30
0
0
VERTEX
8
ENGRAVE
10
17.45345
20
15.93455
30
0
0
VERTEX
8
ENGRAVE
10
17.65144
20
16.19249
30
0
0
VERTEX
8
ENGRAVE
10
17.82180
20
16.40189
30
0
0
VERTEX
8
ENGRAVE
10
17.96454
20
16.56275
30
0
0
VERTEX
8
ENGRAVE
10
18.22622
20
16.81446
30
0
0
VERTEX
8
ENGRAVE
10
18.49557
20
17.02319
30
0
0
VERTEX
8
ENGRAVE
10
18.77260
20
17.18895
30
0
0
VERTEX
8
ENGRAVE
10
19.05730
20
17.31173
30
0
0
VERTEX
8
ENGRAVE
10
19.21212
20
17.35921
30
0
0
VERTEX
8
ENGRAVE
10
19.38805
20
17.40037
30
0
0
VERTEX
8
ENGRAVE
10
19.58508
20
17.43519
30
0
0
VERTEX
8
ENGRAVE
10
19.80321
20
17.46367
30
0
0
VERTEX
8
ENGRAVE
10
20.04244
20
17.48583
30
0
0
VERTEX
8
ENGRAVE
10
20.30278
20
17.50166
30
0
0
VERTEX
8
ENGRAVE
10
20.58422
20
17.51116
30
0
0
VERTEX
8
ENGRAVE
10
20.88677
20
17.51432
30
0
0
VERTEX
8
ENGRAVE
10
21.62346
20
17.51432
30
0
0
VERTEX
8
ENGRAVE
10
21.62346
20
10.00000
30
0
0
SEQEND
0
POLYLINE
8
ENGRAVE
66
1
70
1
0
VERTEX
8
ENGRAVE
10
21.62346
20
20.38745
30
0
0
VERTEX
8
ENGRAVE
10
18.93452
20
20.38745
30
0
0
VERTEX
8
ENGRAVE
10
18.31140
20
20.39090
30
0
0
VERTEX
8
ENGRAVE
10
17.74966
20
20.40126
30
0
0
VERTEX
8
ENGRAVE
10
17.24932
20
20.41853
30
0
0
VERTEX
8
ENGRAVE
10
16.81037
20
20.44270
30
0
0
VERTEX
8
ENGRAVE
10
16.43282
20
20.47378
30
0
0
VERTEX
8
ENGRAVE
10
16.11665
20
20.51177
30
0
0
VERTEX
8
ENGRAVE
10
15.86187
20
20.55666
30
0
0
VERTEX
8
ENGRAVE
10
15.66849
20
20.60846
30
0
0
VERTEX
8
ENGRAVE
10
15.36077
20
20.73891
30
0
0
VERTEX
8
ENGRAVE
10
15.08834
20
20.90928
30
0
0
VERTEX
8
ENGRAVE
10
14.85122
20
21.11954
30
0
0
VERTEX
8
ENGRAVE
10
14.64939
20
21.36971
30
0
0
VERTEX
8
ENGRAVE
10
14.48824
20
21.65672
30
0
0
VERTEX
8
ENGRAVE
10
14.37313
20
21.97749
30
0
0
VERTEX
8
ENGRAVE
10
14.30406
20
22.33202
30
0
0
VERTEX
8
ENGRAVE
10
14.28104
20
22.72032
30
0
0
VERTEX
8
ENGRAVE
10
14.31135
20
23.15275
30
0
0
VERTEX
8
ENGRAVE
10
14.40229
20
23.54144
30
0
0
VERTEX
8
ENGRAVE
10
14.55385
20
23.88638
30
0
0
VERTEX
8
ENGRAVE
10
14.76604
20
24.18758
30
0
0
VERTEX
8
ENGRAVE
10
15.03347
20
24.44121
30
0
0
VERTEX
8
ENGRAVE
10
15.35079
20
24.64342
30
0
0
VERTEX
8
ENGRAVE
10
15.71799
20
24.79421
30
0
0
VERTEX
8
ENGRAVE
10
16.13507
20
24.89359
30
0
0
VERTEX
8
ENGRAVE
10
16.27320
20
24.90797
30
0
0
VERTEX
8
ENGRAVE
10
16.46658
20
24.92044
30
0
0
VERTEX
8
ENGRAVE
10
16.71522
20
24.93100
30
0
0
VERTEX
8
ENGRAVE
10
17.01910
20
24.93963
30
0
0
VERTEX
8
ENGRAVE
10
17.37824
20
24.94634
30
0
0
VERTEX
8
ENGRAVE
10
17.79264
20
24.95114
30
0
0
VERTEX
8
ENGRAVE
10
18.26228
20
24.95402
30
0
0
VERTEX
8
ENGRAVE
10
18.78718
20
24.95498
30
0
0
VERTEX
8
ENGRAVE
10
21.62346
20
24.95498
30
0
0
SEQEND
0
ENDSEC
0
EOF
