0
SECTION
2
HEADER
9
$INSUNITS
70
4
0
ENDSEC
0
SECTION
2
TABLES
0
TABLE
2
LAYER
70
2
0
LAYER
2
CUT
70
0
62
1
6
CONTINUOUS
0
LAYER
2
ENGRAVE
70
0
62
5
6
CONTINUOUS
0
ENDTAB
0
ENDSEC
0
SECTION
2
ENTITIES
0
POLYLINE
8
CUT
66
1
70
1
0
VERTEX
8
CUT
10
0.00000
20
0.00000
30
0
0
VERTEX
8
CUT
10
104.00000
20
0.00000
30
0
0
VERTEX
8
CUT
10
104.00000
20
38.00000
30
0
0
VERTEX
8
CUT
10
3.00000
20
38.00000
30
0
0
VERTEX
8
CUT
10
0.00000
20
35.00000
30
0
0
SEQEND
0
POLYLINE
8
ENGRAVE
66
1
70
1
0
VERTEX
8
ENGRAVE
10
9.07503
20
18.88949
30
0
0
VERTEX
8
ENGRAVE
10
9.08789
20
19.56326
30
0
0
VERTEX
8
ENGRAVE
10
9.12645
20
20.20941
30
0
0
VERTEX
8
ENGRAVE
10
9.19072
20
20.82793
30
0
0
VERTEX
8
ENGRAVE
10
9.28069
20
21.41882
30
0
0
VERTEX
8
ENGRAVE
10
9.39638
20
21.98209
30
0
0
VERTEX
8
ENGRAVE
10
9.53777
20
22.51773
30
0
0
VERTEX
8
ENGRAVE
10
9.70487
20
23.02575
30
0
0
VERTEX
8
ENGRAVE
10
9.89768
20
23.50614
30
0
0
VERTEX
8
ENGRAVE
10
10.23265
20
24.17607
30
0
0
VERTEX
8
ENGRAVE
10
10.62363
20
24.81071
30
0
0
VERTEX
8
ENGRAVE
10
11.07064
20
25.41004
30
0
0
VERTEX
8
ENGRAVE
10
11.57367
20
25.97408
30
0
0
VERTEX
8
ENGRAVE
10
12.11737
20
26.48516
30
0
0
VERTEX
8
ENGRAVE
10
12.68639
20
26.92565
30
0
0
VERTEX
8
ENGRAVE
10
13.28074
20
27.29553
30
0
0
VERTEX
8
ENGRAVE
10
13.90041
20
27.59481
30
0
0
VERTEX
8
ENGRAVE
10
14.32900
20
27.76172
30
0
0
VERTEX
8
ENGRAVE
10
14.77370
20
27.90637
30
0
0
VERTEX
8
ENGRAVE
10
15.23452
20
28.02877
30
0
0
VERTEX
8
ENGRAVE
10
15.71146
20
28.12892
30
0
0
VERTEX
8
ENGRAVE
10
16.20451
20
28.20681
30
0
0
VERTEX
8
ENGRAVE
10
16.71368
20
28.26245
30
0
0
VERTEX
8
ENGRAVE
10
17.23896
20
28.29583
30
0
0
VERTEX
8
ENGRAVE
10
17.78035
20
28.30695
30
0
0
VERTEX
8
ENGRAVE
10
18.27141
20
28.29731
30
0
0
VERTEX
8
ENGRAVE
10
18.75005
20
28.26839
30
0
0
VERTEX
8
ENGRAVE
10
19.21627
20
28.22019
30
0
0
VERTEX
8
ENGRAVE
10
19.67006
20
28.15271
30
0
0
VERTEX
8
ENGRAVE
10
20.11143
20
28.06595
30
0
0
VERTEX
8
ENGRAVE
10
20.54038
20
27.95990
30
0
0
VERTEX
8
ENGRAVE
10
20.95691
20
27.83458
30
0
0
VERTEX
8
ENGRAVE
10
21.36101
20
27.68997
30
0
0
VERTEX
8
ENGRAVE
10
21.75270
20
27.52608
30
0
0
VERTEX
8
ENGRAVE
10
22.13196
20
27.34292
30
0
0
VERTEX
8
ENGRAVE
10
22.49880
20
27.14047
30
0
0
VERTEX
8
ENGRAVE
10
22.85321
20
26.91874
30
0
0
VERTEX
8
ENGRAVE
10
23.19521
20
26.67773
30
0
0
VERTEX
8
ENGRAVE
10
23.52478
20
26.41744
30
0
0
VERTEX
8
ENGRAVE
10
23.84193
20
26.13787
30
0
0
VERTEX
8
ENGRAVE
10
24.14665
20
25.83902
30
0
0
VERTEX
8
ENGRAVE
10
24.43584
20
25.52299
30
0
0
VERTEX
8
ENGRAVE
10
24.70637
20
25.19191
30
0
0
VERTEX
8
ENGRAVE
10
24.95825
20
24.84577
30
0
0
VERTEX
8
ENGRAVE
10
25.19146
20
24.48456
30
0
0
VERTEX
8
ENGRAVE
10
25.40602
20
24.10830
30
0
0
VERTEX
8
ENGRAVE
10
25.60192
20
23.71698
30
0
0
VERTEX
8
ENGRAVE
10
25.77917
20
23.31060
30
0
0
VERTEX
8
ENGRAVE
10
25.93775
20
22.88915
30
0
0
VERTEX
8
ENGRAVE
10
26.07768
20
22.45265
30
0
0
VERTEX
8
ENGRAVE
10
26.19896
20
22.00109
30
0
0
VERTEX
8
ENGRAVE
10
26.30157
20
21.53446
30
0
0
VERTEX
8
ENGRAVE
10
26.38553
20
21.05278
30
0
0
VERTEX
8
ENGRAVE
10
26.45083
20
20.55603
30
0
0
VERTEX
8
ENGRAVE
10
26.49747
20
20.04423
30
0
0
VERTEX
8
ENGRAVE
10
26.52546
20
19.51737
30
0
0
VERTEX
8
ENGRAVE
10
26.53479
20
18.97544
30
0
0
VERTEX
8
ENGRAVE
10
26.52553
20
18.43800
30
0
0
VERTEX
8
ENGRAVE
10
26.49776
20
17.91538
30
0
0
VERTEX
8
ENGRAVE
10
26.45148
20
17.40758
30
0
0
VERTEX
8
ENGRAVE
10
26.38668
20
16.91461
30
0
0
VERTEX
8
ENGRAVE
10
26.30337
20
16.43645
30
0
0
VERTEX
8
ENGRAVE
10
26.20155
20
15.97311
30
0
0
VERTEX
8
ENGRAVE
10
26.08121
20
15.52459
30
0
0
VERTEX
8
ENGRAVE
10
25.94236
20
15.09089
30
0
0
VERTEX
8
ENGRAVE
10
25.78499
20
14.67202
30
0
0
VERTEX
8
ENGRAVE
10
25.60912
20
14.26796
30
0
0
VERTEX
8
ENGRAVE
10
25.41473
20
13.87872
30
0
0
VERTEX
8
ENGRAVE
10
25.20182
20
13.50431
30
0
0
VERTEX
8
ENGRAVE
10
24.97041
20
13.14471
30
0
0
VERTEX
8
ENGRAVE
10
24.72047
20
12.79993
30
0
0
VERTEX
8
ENGRAVE
10
24.45203
20
12.46998
30
0
0
VERTEX
8
ENGRAVE
10
24.16507
20
12.15484
30
0
0
VERTEX
8
ENGRAVE
10
23.86262
20
11.85673
30
0
0
VERTEX
8
ENGRAVE
10
23.54770
20
11.57786
30
0
0
VERTEX
8
ENGRAVE
10
23.22031
20
11.31821
30
0
0
VERTEX
8
ENGRAVE
10
22.88045
20
11.07780
30
0
0
VERTEX
8
ENGRAVE
10
22.52812
20
10.85663
30
0
0
VERTEX
8
ENGRAVE
10
22.16332
20
10.65468
30
0
0
VERTEX
8
ENGRAVE
10
21.78605
20
10.47197
30
0
0
VERTEX
8
ENGRAVE
10
21.39631
20
10.30849
30
0
0
VERTEX
8
ENGRAVE
10
20.99410
20
10.16425
30
0
0
VERTEX
8
ENGRAVE
10
20.57942
20
10.03923
30
0
0
VERTEX
8
ENGRAVE
10
20.15227
20
9.93345
30
0
0
VERTEX
8
ENGRAVE
10
19.71265
20
9.84690
30
0
0
VERTEX
8
ENGRAVE
10
19.26056
20
9.77959
30
0
0
VERTEX
8
ENGRAVE
10
18.79600
20
9.73151
30
0
0
VERTEX
8
ENGRAVE
10
18.31897
20
9.70266
30
0
0
VERTEX
8
ENGRAVE
10
17.82947
20
9.69304
30
0
0
VERTEX
8
ENGRAVE
10
17.33402
20
9.70261
30
0
0
VERTEX
8
ENGRAVE
10
16.85142
20
9.73132
30
0
0
VERTEX
8
ENGRAVE
10
16.38168
20
9.77916
30
0
0
VERTEX
8
ENGRAVE
10
15.92479
20
9.84614
30
0
0
VERTEX
8
ENGRAVE
10
15.48076
20
9.93225
30
0
0
VERTEX
8
ENGRAVE
10
15.04958
20
10.03751
30
0
0
VERTEX
8
ENGRAVE
10
14.63125
20
10.16190
30
0
0
VERTEX
8
ENGRAVE
10
14.22578
20
10.30542
30
0
0
VERTEX
8
ENGRAVE
10
13.83316
20
10.46809
30
0
0
VERTEX
8
ENGRAVE
10
13.45340
20
10.64989
30
0
0
VERTEX
8
ENGRAVE
10
13.08649
20
10.85082
30
0
0
VERTEX
8
ENGRAVE
10
12.73243
20
11.07090
30
0
0
VERTEX
8
ENGRAVE
10
12.39123
20
11.31011
30
0
0
VERTEX
8
ENGRAVE
10
12.06288
20
11.56846
30
0
0
VERTEX
8
ENGRAVE
10
11.74739
20
11.84594
30
0
0
VERTEX
8
ENGRAVE
10
11.44475
20
12.14256
30
0
0
VERTEX
8
ENGRAVE
10
11.15779
20
12.45597
30
0
0
VERTEX
8
ENGRAVE
10
10.88934
20
12.78382
30
0
0
VERTEX
8
ENGRAVE
10
10.63941
20
13.12610
30
0
0
VERTEX
8
ENGRAVE
10
10.40800
20
13.48282
30
0
0
VERTEX
8
ENGRAVE
10
10.19509
20
13.85397
30
0
0
VERTEX
8
ENGRAVE
10
10.00070
20
14.23956
30
0
0
VERTEX
8
ENGRAVE
10
9.82483
20
14.63959
30
0
0
VERTEX
8
ENGRAVE
10
9.66746
20
15.05406
30
0
0
VERTEX
8
ENGRAVE
10
9.52861
20
15.48296
30
0
0
VERTEX
8
ENGRAVE
10
9.40827
20
15.92630
30
0
0
VERTEX
8
ENGRAVE
10
9.30645
20
16.38407
30
0
0
VERTEX
8
ENGRAVE
10
9.22314
20
16.85628
30
0
0
VERTEX
8
ENGRAVE
10
9.15834
20
17.34293
30
0
0
VERTEX
8
ENGRAVE
10
9.11206
20
17.84401
30
0
0
VERTEX
8
ENGRAVE
10
9.08429
20
18.35953
30
0
0
SEQEND
0
POLYLINE
8
ENGRAVE
66
1
70
1
0
VERTEX
8
ENGRAVE
10
12.81992
20
19.01228
30
0
0
VERTEX
8
ENGRAVE
10
12.84198
20
18.27107
30
0
0
VERTEX
8
ENGRAVE
10
12.90817
20
17.57610
30
0
0
VERTEX
8
ENGRAVE
10
13.01848
20
16.92736
30
0
0
VERTEX
8
ENGRAVE
10
13.17292
20
16.32486
30
0
0
VERTEX
8
ENGRAVE
10
13.37148
20
15.76860
30
0
0
VERTEX
8
ENGRAVE
10
13.61417
20
15.25857
30
0
0
VERTEX
8
ENGRAVE
10
13.90098
20
14.79477
30
0
0
VERTEX
8
ENGRAVE
10
14.23192
20
14.37722
30
0
0
VERTEX
8
ENGRAVE
10
14.59682
20
14.00743
30
0
0
VERTEX
8
ENGRAVE
10
14.98550
20
13.68694
30
0
0
VERTEX
8
ENGRAVE
10
15.39798
20
13.41577
30
0
0
VERTEX
8
ENGRAVE
10
15.83424
20
13.19389
30
0
0
VERTEX
8
ENGRAVE
10
16.29429
20
13.02133
30
0
0
VERTEX
8
ENGRAVE
10
16.77814
20
12.89806
30
0
0
VERTEX
8
ENGRAVE
10
17.28577
20
12.82410
30
0
0
VERTEX
8
ENGRAVE
10
17.81719
20
12.79945
30
0
0
VERTEX
8
ENGRAVE
10
18.34832
20
12.82391
30
0
0
VERTEX
8
ENGRAVE
10
18.85509
20
12.89730
30
0
0
VERTEX
8
ENGRAVE
10
19.33749
20
13.01960
30
0
0
VERTEX
8
ENGRAVE
10
19.79553
20
13.19082
30
0
0
VERTEX
8
ENGRAVE
10
20.22920
20
13.41097
30
0
0
VERTEX
8
ENGRAVE
10
20.63851
20
13.68004
30
0
0
VERTEX
8
ENGRAVE
10
21.02346
20
13.99803
30
0
0
VERTEX
8
ENGRAVE
10
21.38403
20
14.36494
30
0
0
VERTEX
8
ENGRAVE
10
21.71066
20
14.78077
30
0
0
VERTEX
8
ENGRAVE
10
21.99373
20
15.24552
30
0
0
VERTEX
8
ENGRAVE
10
22.23325
20
15.75920
30
0
0
VERTEX
8
ENGRAVE
10
22.42923
20
16.32179
30
0
0
VERTEX
8
ENGRAVE
10
22.58165
20
16.93331
30
0
0
VERTEX
8
ENGRAVE
10
22.69053
20
17.59375
30
0
0
VERTEX
8
ENGRAVE
10
22.75585
20
18.30311
30
0
0
VERTEX
8
ENGRAVE
10
22.77762
20
19.06139
30
0
0
VERTEX
8
ENGRAVE
10
22.75643
20
19.81037
30
0
0
VERTEX
8
ENGRAVE
10
22.69283
20
20.51023
30
0
0
VERTEX
8
ENGRAVE
10
22.58683
20
21.16098
30
0
0
VERTEX
8
ENGRAVE
10
22.43844
20
21.76262
30
0
0
VERTEX
8
ENGRAVE
10
22.24764
20
22.31514
30
0
0
VERTEX
8
ENGRAVE
10
22.01445
20
22.81855
30
0
0
VERTEX
8
ENGRAVE
10
21.73886
20
23.27285
30
0
0
VERTEX
8
ENGRAVE
10
21.42087
20
23.67803
30
0
0
VERTEX
8
ENGRAVE
10
21.06777
20
24.03487
30
0
0
VERTEX
8
ENGRAVE
10
20.68686
20
24.34413
30
0
0
VERTEX
8
ENGRAVE
10
20.27812
20
24.60581
30
0
0
VERTEX
8
ENGRAVE
10
19.84157
20
24.81992
30
0
0
VERTEX
8
ENGRAVE
10
19.37720
20
24.98644
30
0
0
VERTEX
8
ENGRAVE
10
18.88502
20
25.10539
30
0
0
VERTEX
8
ENGRAVE
10
18.36501
20
25.17675
30
0
0
VERTEX
8
ENGRAVE
10
17.81719
20
25.20054
30
0
0
VERTEX
8
ENGRAVE
10
17.26908
20
25.17647
30
0
0
VERTEX
8
ENGRAVE
10
16.74821
20
25.10424
30
0
0
VERTEX
8
ENGRAVE
10
16.25458
20
24.98385
30
0
0
VERTEX
8
ENGRAVE
10
15.78820
20
24.81531
30
0
0
VERTEX
8
ENGRAVE
10
15.34906
20
24.59862
30
0
0
VERTEX
8
ENGRAVE
10
14.93716
20
24.33377
30
0
0
VERTEX
8
ENGRAVE
10
14.55250
20
24.02077
30
0
0
VERTEX
8
ENGRAVE
10
14.19509
20
23.65962
30
0
0
VERTEX
8
ENGRAVE
10
13.87278
20
23.24992
30
0
0
VERTEX
8
ENGRAVE
10
13.59345
20
22.79131
30
0
0
VERTEX
8
ENGRAVE
10
13.35709
20
22.28377
30
0
0
VERTEX
8
ENGRAVE
10
13.16371
20
21.72732
30
0
0
VERTEX
8
ENGRAVE
10
13.01330
20
21.12194
30
0
0
VERTEX
8
ENGRAVE
10
12.90587
20
20.46764
30
0
0
VERTEX
8
ENGRAVE
10
12.84140
20
19.76442
30
0
0
SEQEND
0
POLYLINE
8
ENGRAVE
66
1
70
1
0
VERTEX
8
ENGRAVE
10
29.40791
20
10.00000
30
0
0
VERTEX
8
ENGRAVE
10
29.40791
20
28.00000
30
0
0
VERTEX
8
ENGRAVE
10
32.94406
20
28.00000
30
0
0
VERTEX
8
ENGRAVE
10
40.31105
20
15.97953
30
0
0
VERTEX
8
ENGRAVE
10
40.31105
20
28.00000
30
0
0
VERTEX
8
ENGRAVE
10
43.68758
20
28.00000
30
0
0
VERTEX
8
ENGRAVE
10
43.68758
20
10.00000
30
0
0
VERTEX
8
ENGRAVE
10
40.04093
20
10.00000
30
0
0
VERTEX
8
ENGRAVE
10
32.78445
20
21.73806
30
0
0
VERTEX
8
ENGRAVE
10
32.78445
20
10.00000
30
0
0
SEQEND
0
POLYLINE
8
ENGRAVE
66
1
70
1
0
VERTEX
8
ENGRAVE
10
69.81582
20
10.00000
30
0
0
VERTEX
8
ENGRAVE
10
65.86221
20
10.00000
30
0
0
VERTEX
8
ENGRAVE
10
64.29059
20
14.08867
30
0
0
VERTEX
8
ENGRAVE
10
57.09549
20
14.08867
30
0
0
VERTEX
8
ENGRAVE
10
55.60982
20
10.00000
30
0
0
VERTEX
8
ENGRAVE
10
51.75443
20
10.00000
30
0
0
VERTEX
8
ENGRAVE
10
58.76534
20
28.00000
30
0
0
VERTEX
8
ENGRAVE
10
62.60846
20
28.00000
30
0
0
SEQEND
0
POLYLINE
8
ENGRAVE
66
1
70
1
0
VERTEX
8
ENGRAVE
10
63.12414
20
17.12142
30
0
0
VERTEX
8
ENGRAVE
10
60.64393
20
23.80082
30
0
0
VERTEX
8
ENGRAVE
10
58.21282
20
17.12142
30
0
0
SEQEND
0
POLYLINE
8
ENGRAVE
66
1
70
1
0
VERTEX
8
ENGRAVE
10
71.63301
20
10.00000
30
0
0
VERTEX
8
ENGRAVE
10
71.63301
20
28.00000
30
0
0
VERTEX
8
ENGRAVE
10
75.26739
20
28.00000
30
0
0
VERTEX
8
ENGRAVE
10
75.26739
20
10.00000
30
0
0
SEQEND
0
POLYLINE
8
ENGRAVE
66
1
70
1
0
VERTEX
8
ENGRAVE
10
78.74215
20
10.00000
30
0
0
VERTEX
8
ENGRAVE
10
78.74215
20
28.00000
30
0
0
VERTEX
8
ENGRAVE
10
86.39154
20
28.00000
30
0
0
VERTEX
8
ENGRAVE
10
87.08823
20
27.99242
30
0
0
VERTEX
8
ENGRAVE
10
87.73563
20
27.96969
30
0
0
VERTEX
8
ENGRAVE
10
88.33372
20
27.93180
30
0
0
VERTEX
8
ENGRAVE
10
88.88250
20
27.87875
30
0
0
VERTEX
8
ENGRAVE
10
89.38198
20
27.81055
30
0
0
VERTEX
8
ENGRAVE
10
89.83215
20
27.72719
30
0
0
VERTEX
8
ENGRAVE
10
90.23301
20
27.62867
30
0
0
VERTEX
8
ENGRAVE
10
90.58457
20
27.51500
30
0
0
VERTEX
8
ENGRAVE
10
90.90333
20
27.38196
30
0
0
VERTEX
8
ENGRAVE
10
91.20578
20
27.22531
30
0
0
VERTEX
8
ENGRAVE
10
91.49192
20
27.04507
30
0
0
VERTEX
8
ENGRAVE
10
91.76176
20
26.84123
30
0
0
VERTEX
8
ENGRAVE
10
92.01529
20
26.61380
30
0
0
VERTEX
8
ENGRAVE
10
92.25251
20
26.36276
30
0
0
VERTEX
8
ENGRAVE
10
92.47342
20
26.08813
30
0
0
VERTEX
8
ENGRAVE
10
92.67803
20
25.78990
30
0
0
VERTEX
8
ENGRAVE
10
92.86221
20
25.47431
30
0
0
VERTEX
8
ENGRAVE
10
93.02182
20
25.14759
30
0
0
VERTEX
8
ENGRAVE
10
93.15688
20
24.80975
30
0
0
VERTEX
8
ENGRAVE
10
93.26739
20
24.46078
30
0
0
VERTEX
8
ENGRAVE
10
93.35334
20
24.10068
30
0
0
VERTEX
8
ENGRAVE
10
93.41473
20
23.72945
30
0
0
VERTEX
8
ENGRAVE
10
93.45156
20
23.34709
30
0
0
VERTEX
8
ENGRAVE
10
93.46384
20
22.95361
30
0
0
VERTEX
8
ENGRAVE
10
93.44523
20
22.45816
30
0
0
VERTEX
8
ENGRAVE
10
93.38940
20
21.98478
30
0
0
VERTEX
8
ENGRAVE
10
93.29636
20
21.53345
30
0
0
VERTEX
8
ENGRAVE
10
93.16609
20
21.10419
30
0
0
VERTEX
8
ENGRAVE
10
92.99861
20
20.69699
30
0
0
VERTEX
8
ENGRAVE
10
92.79391
20
20.31186
30
0
0
VERTEX
8
ENGRAVE
10
92.55198
20
19.94878
30
0
0
VERTEX
8
ENGRAVE
10
92.27284
20
19.60777
30
0
0
VERTEX
8
ENGRAVE
10
91.95668
20
19.29305
30
0
0
VERTEX
8
ENGRAVE
10
91.60368
20
19.00882
30
0
0
VERTEX
8
ENGRAVE
10
91.21384
20
18.75510
30
0
0
VERTEX
8
ENGRAVE
10
90.78717
20
18.53189
30
0
0
VERTEX
8
ENGRAVE
10
90.32366
20
18.33918
30
0
0
VERTEX
8
ENGRAVE
10
89.82332
20
18.17697
30
0
0
VERTEX
8
ENGRAVE
10
89.28615
20
18.04526
30
0
0
VERTEX
8
ENGRAVE
10
88.71214
20
17.94406
30
0
0
VERTEX
8
ENGRAVE
10
89.27579
20
17.59183
30
0
0
VERTEX
8
ENGRAVE
10
89.78802
20
17.22271
30
0
0
VERTEX
8
ENGRAVE
10
90.24884
20
16.83671
30
0
0
VERTEX
8
ENGRAVE
10
90.65825
20
16.43383
30
0
0
VERTEX
8
ENGRAVE
10
90.85844
20
16.20822
30
0
0
VERTEX
8
ENGRAVE
10
91.07532
20
15.94270
30
0
0
VERTEX
8
ENGRAVE
10
91.30890
20
15.63728
30
0
0
VERTEX
8
ENGRAVE
10
91.55917
20
15.29195
30
0
0
VERTEX
8
ENGRAVE
10
91.82613
20
14.90672
30
0
0
VERTEX
8
ENGRAVE
10
92.10977
20
14.48158
30
0
0
VERTEX
8
ENGRAVE
10
92.41011
20
14.01654
30
0
0
VERTEX
8
ENGRAVE
10
92.72715
20
13.51159
30
0
0
VERTEX
8
ENGRAVE
10
94.92497
20
10.00000
30
0
0
VERTEX
8
ENGRAVE
10
90.57844
20
10.00000
30
0
0
VERTEX
8
ENGRAVE
10
87.95088
20
13.91678
30
0
0
VERTEX
8
ENGRAVE
10
87.61476
20
14.41741
30
0
0
VERTEX
8
ENGRAVE
10
87.30627
20
14.86950
30
0
0
VERTEX
8
ENGRAVE
10
87.02540
20
15.27305
30
0
0
VERTEX
8
ENGRAVE
10
86.77216
20
15.62807
30
0
0
VERTEX
8
ENGRAVE
10
86.54655
20
15.93455
30
0
0
VERTEX
8
ENGRAVE
10
86.34856
20
16.19249
30
0
0
VERTEX
8
ENGRAVE
10
86.17820
20
16.40189
30
0
0
VERTEX
8
ENGRAVE
10
86.03546
20
16.56275
30
0
0
VERTEX
8
ENGRAVE
10
85.77378
20
16.81446
30
0
0
VERTEX
8
ENGRAVE
10
85.50443
20
17.02319
30
0
0
VERTEX
8
ENGRAVE
10
85.22740
20
17.18895
30
0
0
VERTEX
8
ENGRAVE
10
84.94270
20
17.31173
30
0
0
VERTEX
8
ENGRAVE
10
84.78788
20
17.35921
30
0
0
VERTEX
8
ENGRAVE
10
84.61195
20
17.40037
30
0
0
VERTEX
8
ENGRAVE
10
84.41492
20
17.43519
30
0
0
VERTEX
8
ENGRAVE
10
84.19679
20
17.46367
30
0
0
VERTEX
8
ENGRAVE
10
83.95756
20
17.48583
30
0
0
VERTEX
8
ENGRAVE
10
83.69722
20
17.50166
30
0
0
VERTEX
8
ENGRAVE
10
83.41578
20
17.51116
30
0
0
VERTEX
8
ENGRAVE
10
83.11323
20
17.51432
30
0
0
VERTEX
8
ENGRAVE
10
82.37654
20
17.51432
30
0
0
VERTEX
8
ENGRAVE
10
82.37654
20
10.00000
30
0
0
SEQEND
0
POLYLINE
8
ENGRAVE
66
1
70
1
0
VERTEX
8
ENGRAVE
10
82.37654
20
20.38745
30
0
0
VERTEX
8
ENGRAVE
10
85.06548
20
20.38745
30
0
0
VERTEX
8
ENGRAVE
10
85.68860
20
20.39090
30
0
0
VERTEX
8
ENGRAVE
10
86.25034
20
20.40126
30
0
0
VERTEX
8
ENGRAVE
10
86.75068
20
20.41853
30
0
0
VERTEX
8
ENGRAVE
10
87.18963
20
20.44270
30
0
0
VERTEX
8
ENGRAVE
10
87.56718
20
20.47378
30
0
0
VERTEX
8
ENGRAVE
10
87.88335
20
20.51177
30
0
0
VERTEX
8
ENGRAVE
10
88.13813
20
20.55666
30
0
0
VERTEX
8
ENGRAVE
10
88.33151
20
20.60846
30
0
0
VERTEX
8
ENGRAVE
10
88.63923
20
20.73891
30
0
0
VERTEX
8
ENGRAVE
10
88.91166
20
20.90928
30
0
0
VERTEX
8
ENGRAVE
10
89.14878
20
21.11954
30
0
0
VERTEX
8
ENGRAVE
10
89.35061
20
21.36971
30
0
0
VERTEX
8
ENGRAVE
10
89.51176
20
21.65672
30
0
0
VERTEX
8
ENGRAVE
10
89.62687
20
21.97749
30
0
0
VERTEX
8
ENGRAVE
10
89.69594
20
22.33202
30
0
0
VERTEX
8
ENGRAVE
10
89.71896
20
22.72032
30
0
0
VERTEX
8
ENGRAVE
10
89.68865
20
23.15275
30
0
0
VERTEX
8
ENGRAVE
10
89.59771
20
23.54144
30
0
0
VERTEX
8
ENGRAVE
10
89.44615
20
23.88638
30
0
0
VERTEX
8
ENGRAVE
10
89.23396
20
24.18758
30
0
0
VERTEX
8
ENGRAVE
10
88.96653
20
24.44121
30
0
0
VERTEX
8
ENGRAVE
10
88.64921
20
24.64342
30
0
0
VERTEX
8
ENGRAVE
10
88.28201
20
24.79421
30
0
0
VERTEX
8
ENGRAVE
10
87.86493
20
24.89359
30
0
0
VERTEX
8
ENGRAVE
10
87.72680
20
24.90797
30
0
0
VERTEX
8
ENGRAVE
10
87.53342
20
24.92044
30
0
0
VERTEX
8
ENGRAVE
10
87.28478
20
24.93100
30
0
0
VERTEX
8
ENGRAVE
10
86.98090
20
24.93963
30
0
0
VERTEX
8
ENGRAVE
10
86.62176
20
24.94634
30
0
0
VERTEX
8
ENGRAVE
10
86.20736
20
24.95114
30
0
0
VERTEX
8
ENGRAVE
10
85.73772
20
24.95402
30
0
0
VERTEX
8
ENGRAVE
10
85.21282
20
24.95498
30
0
0
VERTEX
8
ENGRAVE
10
82.37654
20
24.95498
30
0
0
SEQEND
0
ENDSEC
0
EOF
